<?xml version="1.0" encoding="UTF-8" standalone="no"?>
<!DOCTYPE svg PUBLIC "-//W3C//DTD SVG 1.1//EN"
 "http://www.w3.org/Graphics/SVG/1.1/DTD/svg11.dtd">
<!-- Generated by graphviz version 2.42.3 (20191010.1750)
 -->
<!-- Title: G0 Pages: 1 -->
<svg width="1063pt" height="2250pt"
 viewBox="0.00 0.00 1063.00 2250.00" xmlns="http://www.w3.org/2000/svg" xmlns:xlink="http://www.w3.org/1999/xlink">
<g id="graph0" class="graph" transform="scale(1 1) rotate(0) translate(4 2246)">
<title>G0</title>
<polygon fill="white" stroke="transparent" points="-4,4 -4,-2246 1059,-2246 1059,4 -4,4"/>
<g id="clust1" class="cluster">
<title>clustersubgraph0</title>
<polygon fill="none" stroke="black" points="16,-138 16,-667 941,-667 941,-138 16,-138"/>
<text text-anchor="middle" x="478.5" y="-651.8" font-family="Times,serif" font-size="14.00">subgraph_Net__Net_Conv2d_conv4__208</text>
</g>
<g id="clust2" class="cluster">
<title>clustersubgraph1</title>
<polygon fill="none" stroke="black" points="63,-146 63,-283 665,-283 665,-146 63,-146"/>
<text text-anchor="middle" x="364" y="-267.8" font-family="Times,serif" font-size="14.00">subgraph_Net__Net_PixelShuffle_pixel_shuffle__210_convert_to_tile_download_0</text>
</g>
<g id="clust3" class="cluster">
<title>clustersubgraph2</title>
<polygon fill="none" stroke="black" points="540,-529 540,-636 933,-636 933,-529 540,-529"/>
<text text-anchor="middle" x="736.5" y="-620.8" font-family="Times,serif" font-size="14.00">subgraph_Net__Net_Tanh_tanh__input_fix_upload_0</text>
</g>
<g id="clust4" class="cluster">
<title>clustersubgraph3</title>
<polygon fill="none" stroke="black" points="24,-291 24,-636 532,-636 532,-291 24,-291"/>
<text text-anchor="middle" x="278" y="-620.8" font-family="Times,serif" font-size="14.00">subgraph_Net__Net_Conv2d_conv4__208</text>
</g>
<g id="clust5" class="cluster">
<title>clustersubgraph4</title>
<polygon fill="none" stroke="black" points="568,-2127 568,-2234 780,-2234 780,-2127 568,-2127"/>
<text text-anchor="middle" x="674" y="-2218.8" font-family="Times,serif" font-size="14.00">subgraph_Net__input_0</text>
</g>
<g id="clust6" class="cluster">
<title>clustersubgraph5</title>
<polygon fill="none" stroke="black" points="8,-1754 8,-2119 824,-2119 824,-1754 8,-1754"/>
<text text-anchor="middle" x="416" y="-2103.8" font-family="Times,serif" font-size="14.00">subgraph_Net__Net_Conv2d_conv1__168</text>
</g>
<g id="clust7" class="cluster">
<title>clustersubgraph6</title>
<polygon fill="none" stroke="black" points="105,-1762 105,-1869 512,-1869 512,-1762 105,-1762"/>
<text text-anchor="middle" x="308.5" y="-1853.8" font-family="Times,serif" font-size="14.00">subgraph_Net__Net_Conv2d_conv1__168_download_0</text>
</g>
<g id="clust8" class="cluster">
<title>clustersubgraph7</title>
<polygon fill="none" stroke="black" points="532,-1981 532,-2088 816,-2088 816,-1981 532,-1981"/>
<text text-anchor="middle" x="674" y="-2072.8" font-family="Times,serif" font-size="14.00">subgraph_Net__input_0_upload_0</text>
</g>
<g id="clust9" class="cluster">
<title>clustersubgraph8</title>
<polygon fill="none" stroke="black" points="16,-1877 16,-2088 524,-2088 524,-1877 16,-1877"/>
<text text-anchor="middle" x="270" y="-2072.8" font-family="Times,serif" font-size="14.00">subgraph_Net__Net_Conv2d_conv1__168</text>
</g>
<g id="clust10" class="cluster">
<title>clustersubgraph9</title>
<polygon fill="none" stroke="black" points="94,-1028 94,-1393 1036,-1393 1036,-1028 94,-1028"/>
<text text-anchor="middle" x="565" y="-1377.8" font-family="Times,serif" font-size="14.00">subgraph_Net__Net_Conv2d_conv3__188</text>
</g>
<g id="clust11" class="cluster">
<title>clustersubgraph10</title>
<polygon fill="none" stroke="black" points="520,-1151 520,-1362 1028,-1362 1028,-1151 520,-1151"/>
<text text-anchor="middle" x="774" y="-1346.8" font-family="Times,serif" font-size="14.00">subgraph_Net__Net_Conv2d_conv3__188</text>
</g>
<g id="clust12" class="cluster">
<title>clustersubgraph11</title>
<polygon fill="none" stroke="black" points="533,-1036 533,-1143 940,-1143 940,-1036 533,-1036"/>
<text text-anchor="middle" x="736.5" y="-1127.8" font-family="Times,serif" font-size="14.00">subgraph_Net__Net_Conv2d_conv3__188_download_0</text>
</g>
<g id="clust13" class="cluster">
<title>clustersubgraph12</title>
<polygon fill="none" stroke="black" points="102,-1255 102,-1362 512,-1362 512,-1255 102,-1255"/>
<text text-anchor="middle" x="307" y="-1346.8" font-family="Times,serif" font-size="14.00">subgraph_Net__Net_Tanh_tanh__input_3_fix_upload_0</text>
</g>
<g id="clust14" class="cluster">
<title>clustersubgraph13</title>
<polygon fill="none" stroke="black" points="43,-1401 43,-1746 612,-1746 612,-1401 43,-1401"/>
<text text-anchor="middle" x="327.5" y="-1730.8" font-family="Times,serif" font-size="14.00">subgraph_Net__Net_Conv2d_conv1__168_fix_Net__Net_Tanh_tanh__input_3</text>
</g>
<g id="clust15" class="cluster">
<title>clustersubgraph14</title>
<polygon fill="none" stroke="black" points="495,-675 495,-1020 1047,-1020 1047,-675 495,-675"/>
<text text-anchor="middle" x="771" y="-1004.8" font-family="Times,serif" font-size="14.00">subgraph_Net__Net_Conv2d_conv3__188_fix_Net__Net_Tanh_tanh__input</text>
</g>
<g id="clust16" class="cluster">
<title>clustersubgraph15</title>
<polygon fill="none" stroke="black" points="103,-8 103,-130 531,-130 531,-8 103,-8"/>
<text text-anchor="middle" x="317" y="-114.8" font-family="Times,serif" font-size="14.00">subgraph_Net__Net_PixelShuffle_pixel_shuffle__210_fix_</text>
</g>
<!-- 22 -->
<g id="node1" class="node">
<title>22</title>
<path fill="none" stroke="blue" d="M511.5,-252C511.5,-252 122.5,-252 122.5,-252 116.5,-252 110.5,-246 110.5,-240 110.5,-240 110.5,-166 110.5,-166 110.5,-160 116.5,-154 122.5,-154 122.5,-154 511.5,-154 511.5,-154 517.5,-154 523.5,-160 523.5,-166 523.5,-166 523.5,-240 523.5,-240 523.5,-246 517.5,-252 511.5,-252"/>
<text text-anchor="middle" x="317" y="-236.8" font-family="Times,serif" font-size="14.00">Name: Net__Net_PixelShuffle_pixel_shuffle__210_conv</text>
<text text-anchor="middle" x="317" y="-221.8" font-family="Times,serif" font-size="14.00">ert_to_tile_download_0</text>
<text text-anchor="middle" x="317" y="-206.8" font-family="Times,serif" font-size="14.00">Type: download</text>
<text text-anchor="middle" x="317" y="-191.8" font-family="Times,serif" font-size="14.00">Tensor: Net__Net_PixelShuffle_pixel_shuffle__210_f</text>
<text text-anchor="middle" x="317" y="-176.8" font-family="Times,serif" font-size="14.00">ix</text>
<text text-anchor="middle" x="317" y="-161.8" font-family="Times,serif" font-size="14.00">Shape: {1, 32, 32, 1}</text>
</g>
<!-- 23 -->
<g id="node24" class="node">
<title>23</title>
<path fill="none" stroke="red" d="M507,-99C507,-99 127,-99 127,-99 121,-99 115,-93 115,-87 115,-87 115,-28 115,-28 115,-22 121,-16 127,-16 127,-16 507,-16 507,-16 513,-16 519,-22 519,-28 519,-28 519,-87 519,-87 519,-93 513,-99 507,-99"/>
<text text-anchor="middle" x="317" y="-83.8" font-family="Times,serif" font-size="14.00">Name: Net__Net_PixelShuffle_pixel_shuffle__210_fix_</text>
<text text-anchor="middle" x="317" y="-68.8" font-family="Times,serif" font-size="14.00">Type: fix2float</text>
<text text-anchor="middle" x="317" y="-53.8" font-family="Times,serif" font-size="14.00">Tensor: Net__Net_PixelShuffle_pixel_shuffle__210_f</text>
<text text-anchor="middle" x="317" y="-38.8" font-family="Times,serif" font-size="14.00">ix_</text>
<text text-anchor="middle" x="317" y="-23.8" font-family="Times,serif" font-size="14.00">Shape: {1, 32, 32, 1}</text>
</g>
<!-- 22&#45;&gt;23 -->
<g id="edge23" class="edge">
<title>22&#45;&gt;23</title>
<path fill="none" stroke="black" d="M317,-153.82C317,-139.53 317,-123.85 317,-109.4"/>
<polygon fill="black" stroke="black" points="320.5,-109.13 317,-99.13 313.5,-109.13 320.5,-109.13"/>
</g>
<!-- 19 -->
<g id="node2" class="node">
<title>19</title>
<path fill="none" stroke="blue" d="M912,-605C912,-605 560,-605 560,-605 554,-605 548,-599 548,-593 548,-593 548,-549 548,-549 548,-543 554,-537 560,-537 560,-537 912,-537 912,-537 918,-537 924,-543 924,-549 924,-549 924,-593 924,-593 924,-599 918,-605 912,-605"/>
<text text-anchor="middle" x="736" y="-589.8" font-family="Times,serif" font-size="14.00">Name: Net__Net_Tanh_tanh__input_fix_upload_0</text>
<text text-anchor="middle" x="736" y="-574.8" font-family="Times,serif" font-size="14.00">Type: upload</text>
<text text-anchor="middle" x="736" y="-559.8" font-family="Times,serif" font-size="14.00">Tensor: Net__Net_Tanh_tanh__input_fix_upload_0</text>
<text text-anchor="middle" x="736" y="-544.8" font-family="Times,serif" font-size="14.00">Shape: {1, 16, 16, 32}</text>
</g>
<!-- 21 -->
<g id="node6" class="node">
<title>21</title>
<path fill="none" stroke="blue" d="M488.5,-501C488.5,-501 189.5,-501 189.5,-501 183.5,-501 177.5,-495 177.5,-489 177.5,-489 177.5,-445 177.5,-445 177.5,-439 183.5,-433 189.5,-433 189.5,-433 488.5,-433 488.5,-433 494.5,-433 500.5,-439 500.5,-445 500.5,-445 500.5,-489 500.5,-489 500.5,-495 494.5,-501 488.5,-501"/>
<text text-anchor="middle" x="339" y="-485.8" font-family="Times,serif" font-size="14.00">Name: Net__Net_Conv2d_conv4__208</text>
<text text-anchor="middle" x="339" y="-470.8" font-family="Times,serif" font-size="14.00">Type: conv2d&#45;fix</text>
<text text-anchor="middle" x="339" y="-455.8" font-family="Times,serif" font-size="14.00">Tensor: Net__Net_Conv2d_conv4__208_fix</text>
<text text-anchor="middle" x="339" y="-440.8" font-family="Times,serif" font-size="14.00">Shape: {1, 16, 16, 4}</text>
</g>
<!-- 19&#45;&gt;21 -->
<g id="edge4" class="edge">
<title>19&#45;&gt;21</title>
<path fill="none" stroke="black" d="M607.38,-536.95C565.88,-526.29 519.72,-514.43 477.54,-503.59"/>
<polygon fill="black" stroke="black" points="478.31,-500.18 467.76,-501.08 476.57,-506.96 478.31,-500.18"/>
</g>
<!-- 4 -->
<g id="node3" class="node">
<title>4</title>
<path fill="none" stroke="blue" d="M512,-605C512,-605 290,-605 290,-605 284,-605 278,-599 278,-593 278,-593 278,-549 278,-549 278,-543 284,-537 290,-537 290,-537 512,-537 512,-537 518,-537 524,-543 524,-549 524,-549 524,-593 524,-593 524,-599 518,-605 512,-605"/>
<text text-anchor="middle" x="401" y="-589.8" font-family="Times,serif" font-size="14.00">Name: Net__conv4_weight_new</text>
<text text-anchor="middle" x="401" y="-574.8" font-family="Times,serif" font-size="14.00">Type: const&#45;fix</text>
<text text-anchor="middle" x="401" y="-559.8" font-family="Times,serif" font-size="14.00">Tensor: Net__conv4_weight_fix</text>
<text text-anchor="middle" x="401" y="-544.8" font-family="Times,serif" font-size="14.00">Shape: {4, 3, 3, 32}</text>
</g>
<!-- 4&#45;&gt;21 -->
<g id="edge1" class="edge">
<title>4&#45;&gt;21</title>
<path fill="none" stroke="black" d="M380.87,-536.88C375.67,-528.33 370.01,-519.01 364.57,-510.07"/>
<polygon fill="black" stroke="black" points="367.43,-508.03 359.24,-501.3 361.44,-511.66 367.43,-508.03"/>
</g>
<!-- 5 -->
<g id="node4" class="node">
<title>5</title>
<path fill="none" stroke="blue" d="M247.5,-605C247.5,-605 44.5,-605 44.5,-605 38.5,-605 32.5,-599 32.5,-593 32.5,-593 32.5,-549 32.5,-549 32.5,-543 38.5,-537 44.5,-537 44.5,-537 247.5,-537 247.5,-537 253.5,-537 259.5,-543 259.5,-549 259.5,-549 259.5,-593 259.5,-593 259.5,-599 253.5,-605 247.5,-605"/>
<text text-anchor="middle" x="146" y="-589.8" font-family="Times,serif" font-size="14.00">Name: Net__conv4_bias_new</text>
<text text-anchor="middle" x="146" y="-574.8" font-family="Times,serif" font-size="14.00">Type: const&#45;fix</text>
<text text-anchor="middle" x="146" y="-559.8" font-family="Times,serif" font-size="14.00">Tensor: Net__conv4_bias_fix</text>
<text text-anchor="middle" x="146" y="-544.8" font-family="Times,serif" font-size="14.00">Shape: {4}</text>
</g>
<!-- 5&#45;&gt;21 -->
<g id="edge2" class="edge">
<title>5&#45;&gt;21</title>
<path fill="none" stroke="black" d="M208.66,-536.88C227.38,-526.99 248.04,-516.07 267.3,-505.9"/>
<polygon fill="black" stroke="black" points="269.12,-508.89 276.32,-501.12 265.85,-502.7 269.12,-508.89"/>
</g>
<!-- 20 -->
<g id="node5" class="node">
<title>20</title>
<path fill="none" stroke="blue" d="M511.5,-397C511.5,-397 122.5,-397 122.5,-397 116.5,-397 110.5,-391 110.5,-385 110.5,-385 110.5,-311 110.5,-311 110.5,-305 116.5,-299 122.5,-299 122.5,-299 511.5,-299 511.5,-299 517.5,-299 523.5,-305 523.5,-311 523.5,-311 523.5,-385 523.5,-385 523.5,-391 517.5,-397 511.5,-397"/>
<text text-anchor="middle" x="317" y="-381.8" font-family="Times,serif" font-size="14.00">Name: Net__Net_PixelShuffle_pixel_shuffle__210_conv</text>
<text text-anchor="middle" x="317" y="-366.8" font-family="Times,serif" font-size="14.00">ert_to_tile</text>
<text text-anchor="middle" x="317" y="-351.8" font-family="Times,serif" font-size="14.00">Type: tile&#45;fix</text>
<text text-anchor="middle" x="317" y="-336.8" font-family="Times,serif" font-size="14.00">Tensor: Net__Net_PixelShuffle_pixel_shuffle__210_f</text>
<text text-anchor="middle" x="317" y="-321.8" font-family="Times,serif" font-size="14.00">ix_download_0</text>
<text text-anchor="middle" x="317" y="-306.8" font-family="Times,serif" font-size="14.00">Shape: {1, 32, 32, 1}</text>
</g>
<!-- 20&#45;&gt;22 -->
<g id="edge5" class="edge">
<title>20&#45;&gt;22</title>
<path fill="none" stroke="black" d="M317,-298.99C317,-287.19 317,-274.45 317,-262.23"/>
<polygon fill="black" stroke="black" points="320.5,-262.13 317,-252.13 313.5,-262.13 320.5,-262.13"/>
</g>
<!-- 21&#45;&gt;20 -->
<g id="edge3" class="edge">
<title>21&#45;&gt;20</title>
<path fill="none" stroke="black" d="M332.75,-432.79C331.24,-424.74 329.58,-415.89 327.92,-407.07"/>
<polygon fill="black" stroke="black" points="331.34,-406.33 326.05,-397.15 324.46,-407.62 331.34,-406.33"/>
</g>
<!-- 6 -->
<g id="node7" class="node">
<title>6</title>
<path fill="none" stroke="green" d="M760,-2203C760,-2203 588,-2203 588,-2203 582,-2203 576,-2197 576,-2191 576,-2191 576,-2147 576,-2147 576,-2141 582,-2135 588,-2135 588,-2135 760,-2135 760,-2135 766,-2135 772,-2141 772,-2147 772,-2147 772,-2191 772,-2191 772,-2197 766,-2203 760,-2203"/>
<text text-anchor="middle" x="674" y="-2187.8" font-family="Times,serif" font-size="14.00">Name: Net__input_0</text>
<text text-anchor="middle" x="674" y="-2172.8" font-family="Times,serif" font-size="14.00">Type: data&#45;fix</text>
<text text-anchor="middle" x="674" y="-2157.8" font-family="Times,serif" font-size="14.00">Tensor: Net__input_0_fix</text>
<text text-anchor="middle" x="674" y="-2142.8" font-family="Times,serif" font-size="14.00">Shape: {1, 16, 16, 1}</text>
</g>
<!-- 7 -->
<g id="node9" class="node">
<title>7</title>
<path fill="none" stroke="blue" d="M796,-2057C796,-2057 552,-2057 552,-2057 546,-2057 540,-2051 540,-2045 540,-2045 540,-2001 540,-2001 540,-1995 546,-1989 552,-1989 552,-1989 796,-1989 796,-1989 802,-1989 808,-1995 808,-2001 808,-2001 808,-2045 808,-2045 808,-2051 802,-2057 796,-2057"/>
<text text-anchor="middle" x="674" y="-2041.8" font-family="Times,serif" font-size="14.00">Name: Net__input_0_upload_0</text>
<text text-anchor="middle" x="674" y="-2026.8" font-family="Times,serif" font-size="14.00">Type: upload</text>
<text text-anchor="middle" x="674" y="-2011.8" font-family="Times,serif" font-size="14.00">Tensor: Net__input_0_fix_upload_0</text>
<text text-anchor="middle" x="674" y="-1996.8" font-family="Times,serif" font-size="14.00">Shape: {1, 16, 16, 1}</text>
</g>
<!-- 6&#45;&gt;7 -->
<g id="edge18" class="edge">
<title>6&#45;&gt;7</title>
<path fill="none" stroke="black" d="M674,-2134.96C674,-2114.98 674,-2089.27 674,-2067.63"/>
<polygon fill="black" stroke="black" points="677.5,-2067.38 674,-2057.38 670.5,-2067.38 677.5,-2067.38"/>
</g>
<!-- 8 -->
<g id="node8" class="node">
<title>8</title>
<path fill="none" stroke="blue" d="M488,-1838C488,-1838 128,-1838 128,-1838 122,-1838 116,-1832 116,-1826 116,-1826 116,-1782 116,-1782 116,-1776 122,-1770 128,-1770 128,-1770 488,-1770 488,-1770 494,-1770 500,-1776 500,-1782 500,-1782 500,-1826 500,-1826 500,-1832 494,-1838 488,-1838"/>
<text text-anchor="middle" x="308" y="-1822.8" font-family="Times,serif" font-size="14.00">Name: Net__Net_Conv2d_conv1__168_download_0</text>
<text text-anchor="middle" x="308" y="-1807.8" font-family="Times,serif" font-size="14.00">Type: download</text>
<text text-anchor="middle" x="308" y="-1792.8" font-family="Times,serif" font-size="14.00">Tensor: Net__Net_Conv2d_conv1__168_fix</text>
<text text-anchor="middle" x="308" y="-1777.8" font-family="Times,serif" font-size="14.00">Shape: {1, 16, 16, 64}</text>
</g>
<!-- 10 -->
<g id="node18" class="node">
<title>10</title>
<path fill="none" stroke="red" d="M518,-1715C518,-1715 98,-1715 98,-1715 92,-1715 86,-1709 86,-1703 86,-1703 86,-1629 86,-1629 86,-1623 92,-1617 98,-1617 98,-1617 518,-1617 518,-1617 524,-1617 530,-1623 530,-1629 530,-1629 530,-1703 530,-1703 530,-1709 524,-1715 518,-1715"/>
<text text-anchor="middle" x="308" y="-1699.8" font-family="Times,serif" font-size="14.00">Name: Net__Net_Conv2d_conv1__168_fix_Net__Net_Tanh_</text>
<text text-anchor="middle" x="308" y="-1684.8" font-family="Times,serif" font-size="14.00">tanh__input_3</text>
<text text-anchor="middle" x="308" y="-1669.8" font-family="Times,serif" font-size="14.00">Type: fix2float</text>
<text text-anchor="middle" x="308" y="-1654.8" font-family="Times,serif" font-size="14.00">Tensor: Net__Net_Conv2d_conv1__168_fix_Net__Net_Ta</text>
<text text-anchor="middle" x="308" y="-1639.8" font-family="Times,serif" font-size="14.00">nh_tanh__input_3</text>
<text text-anchor="middle" x="308" y="-1624.8" font-family="Times,serif" font-size="14.00">Shape: {1, 16, 16, 64}</text>
</g>
<!-- 8&#45;&gt;10 -->
<g id="edge19" class="edge">
<title>8&#45;&gt;10</title>
<path fill="none" stroke="black" d="M308,-1769.73C308,-1756.38 308,-1740.58 308,-1725.43"/>
<polygon fill="black" stroke="black" points="311.5,-1725.08 308,-1715.08 304.5,-1725.08 311.5,-1725.08"/>
</g>
<!-- 9 -->
<g id="node12" class="node">
<title>9</title>
<path fill="none" stroke="blue" d="M504,-1953C504,-1953 112,-1953 112,-1953 106,-1953 100,-1947 100,-1941 100,-1941 100,-1897 100,-1897 100,-1891 106,-1885 112,-1885 112,-1885 504,-1885 504,-1885 510,-1885 516,-1891 516,-1897 516,-1897 516,-1941 516,-1941 516,-1947 510,-1953 504,-1953"/>
<text text-anchor="middle" x="308" y="-1937.8" font-family="Times,serif" font-size="14.00">Name: Net__Net_Conv2d_conv1__168</text>
<text text-anchor="middle" x="308" y="-1922.8" font-family="Times,serif" font-size="14.00">Type: conv2d&#45;fix</text>
<text text-anchor="middle" x="308" y="-1907.8" font-family="Times,serif" font-size="14.00">Tensor: Net__Net_Conv2d_conv1__168_fix_download_0</text>
<text text-anchor="middle" x="308" y="-1892.8" font-family="Times,serif" font-size="14.00">Shape: {1, 16, 16, 64}</text>
</g>
<!-- 7&#45;&gt;9 -->
<g id="edge8" class="edge">
<title>7&#45;&gt;9</title>
<path fill="none" stroke="black" d="M556.47,-1988.96C546.84,-1986.26 537.26,-1983.58 528,-1981 498.55,-1972.78 466.86,-1963.98 436.97,-1955.68"/>
<polygon fill="black" stroke="black" points="437.91,-1952.31 427.34,-1953.01 436.04,-1959.06 437.91,-1952.31"/>
</g>
<!-- 0 -->
<g id="node10" class="node">
<title>0</title>
<path fill="none" stroke="blue" d="M504,-2057C504,-2057 282,-2057 282,-2057 276,-2057 270,-2051 270,-2045 270,-2045 270,-2001 270,-2001 270,-1995 276,-1989 282,-1989 282,-1989 504,-1989 504,-1989 510,-1989 516,-1995 516,-2001 516,-2001 516,-2045 516,-2045 516,-2051 510,-2057 504,-2057"/>
<text text-anchor="middle" x="393" y="-2041.8" font-family="Times,serif" font-size="14.00">Name: Net__conv1_weight_new</text>
<text text-anchor="middle" x="393" y="-2026.8" font-family="Times,serif" font-size="14.00">Type: const&#45;fix</text>
<text text-anchor="middle" x="393" y="-2011.8" font-family="Times,serif" font-size="14.00">Tensor: Net__conv1_weight_fix</text>
<text text-anchor="middle" x="393" y="-1996.8" font-family="Times,serif" font-size="14.00">Shape: {64, 5, 5, 1}</text>
</g>
<!-- 0&#45;&gt;9 -->
<g id="edge6" class="edge">
<title>0&#45;&gt;9</title>
<path fill="none" stroke="black" d="M365.4,-1988.88C358.05,-1980.07 350.03,-1970.43 342.36,-1961.24"/>
<polygon fill="black" stroke="black" points="344.84,-1958.74 335.75,-1953.3 339.46,-1963.22 344.84,-1958.74"/>
</g>
<!-- 1 -->
<g id="node11" class="node">
<title>1</title>
<path fill="none" stroke="blue" d="M239.5,-2057C239.5,-2057 36.5,-2057 36.5,-2057 30.5,-2057 24.5,-2051 24.5,-2045 24.5,-2045 24.5,-2001 24.5,-2001 24.5,-1995 30.5,-1989 36.5,-1989 36.5,-1989 239.5,-1989 239.5,-1989 245.5,-1989 251.5,-1995 251.5,-2001 251.5,-2001 251.5,-2045 251.5,-2045 251.5,-2051 245.5,-2057 239.5,-2057"/>
<text text-anchor="middle" x="138" y="-2041.8" font-family="Times,serif" font-size="14.00">Name: Net__conv1_bias_new</text>
<text text-anchor="middle" x="138" y="-2026.8" font-family="Times,serif" font-size="14.00">Type: const&#45;fix</text>
<text text-anchor="middle" x="138" y="-2011.8" font-family="Times,serif" font-size="14.00">Tensor: Net__conv1_bias_fix</text>
<text text-anchor="middle" x="138" y="-1996.8" font-family="Times,serif" font-size="14.00">Shape: {64}</text>
</g>
<!-- 1&#45;&gt;9 -->
<g id="edge7" class="edge">
<title>1&#45;&gt;9</title>
<path fill="none" stroke="black" d="M193.19,-1988.88C209.46,-1979.12 227.39,-1968.37 244.15,-1958.31"/>
<polygon fill="black" stroke="black" points="246.02,-1961.27 252.79,-1953.12 242.42,-1955.27 246.02,-1961.27"/>
</g>
<!-- 9&#45;&gt;8 -->
<g id="edge9" class="edge">
<title>9&#45;&gt;8</title>
<path fill="none" stroke="black" d="M308,-1884.71C308,-1873.33 308,-1860.43 308,-1848.37"/>
<polygon fill="black" stroke="black" points="311.5,-1848.05 308,-1838.05 304.5,-1848.05 311.5,-1848.05"/>
</g>
<!-- 2 -->
<g id="node13" class="node">
<title>2</title>
<path fill="none" stroke="blue" d="M1008,-1331C1008,-1331 786,-1331 786,-1331 780,-1331 774,-1325 774,-1319 774,-1319 774,-1275 774,-1275 774,-1269 780,-1263 786,-1263 786,-1263 1008,-1263 1008,-1263 1014,-1263 1020,-1269 1020,-1275 1020,-1275 1020,-1319 1020,-1319 1020,-1325 1014,-1331 1008,-1331"/>
<text text-anchor="middle" x="897" y="-1315.8" font-family="Times,serif" font-size="14.00">Name: Net__conv3_weight_new</text>
<text text-anchor="middle" x="897" y="-1300.8" font-family="Times,serif" font-size="14.00">Type: const&#45;fix</text>
<text text-anchor="middle" x="897" y="-1285.8" font-family="Times,serif" font-size="14.00">Tensor: Net__conv3_weight_fix</text>
<text text-anchor="middle" x="897" y="-1270.8" font-family="Times,serif" font-size="14.00">Shape: {32, 3, 3, 64}</text>
</g>
<!-- 15 -->
<g id="node15" class="node">
<title>15</title>
<path fill="none" stroke="blue" d="M932,-1227C932,-1227 540,-1227 540,-1227 534,-1227 528,-1221 528,-1215 528,-1215 528,-1171 528,-1171 528,-1165 534,-1159 540,-1159 540,-1159 932,-1159 932,-1159 938,-1159 944,-1165 944,-1171 944,-1171 944,-1215 944,-1215 944,-1221 938,-1227 932,-1227"/>
<text text-anchor="middle" x="736" y="-1211.8" font-family="Times,serif" font-size="14.00">Name: Net__Net_Conv2d_conv3__188</text>
<text text-anchor="middle" x="736" y="-1196.8" font-family="Times,serif" font-size="14.00">Type: conv2d&#45;fix</text>
<text text-anchor="middle" x="736" y="-1181.8" font-family="Times,serif" font-size="14.00">Tensor: Net__Net_Conv2d_conv3__188_fix_download_0</text>
<text text-anchor="middle" x="736" y="-1166.8" font-family="Times,serif" font-size="14.00">Shape: {1, 16, 16, 32}</text>
</g>
<!-- 2&#45;&gt;15 -->
<g id="edge10" class="edge">
<title>2&#45;&gt;15</title>
<path fill="none" stroke="black" d="M844.73,-1262.88C829.47,-1253.21 812.65,-1242.56 796.91,-1232.59"/>
<polygon fill="black" stroke="black" points="798.61,-1229.52 788.29,-1227.12 794.86,-1235.43 798.61,-1229.52"/>
</g>
<!-- 3 -->
<g id="node14" class="node">
<title>3</title>
<path fill="none" stroke="blue" d="M743.5,-1331C743.5,-1331 540.5,-1331 540.5,-1331 534.5,-1331 528.5,-1325 528.5,-1319 528.5,-1319 528.5,-1275 528.5,-1275 528.5,-1269 534.5,-1263 540.5,-1263 540.5,-1263 743.5,-1263 743.5,-1263 749.5,-1263 755.5,-1269 755.5,-1275 755.5,-1275 755.5,-1319 755.5,-1319 755.5,-1325 749.5,-1331 743.5,-1331"/>
<text text-anchor="middle" x="642" y="-1315.8" font-family="Times,serif" font-size="14.00">Name: Net__conv3_bias_new</text>
<text text-anchor="middle" x="642" y="-1300.8" font-family="Times,serif" font-size="14.00">Type: const&#45;fix</text>
<text text-anchor="middle" x="642" y="-1285.8" font-family="Times,serif" font-size="14.00">Tensor: Net__conv3_bias_fix</text>
<text text-anchor="middle" x="642" y="-1270.8" font-family="Times,serif" font-size="14.00">Shape: {32}</text>
</g>
<!-- 3&#45;&gt;15 -->
<g id="edge11" class="edge">
<title>3&#45;&gt;15</title>
<path fill="none" stroke="black" d="M672.52,-1262.88C680.81,-1253.89 689.88,-1244.04 698.51,-1234.68"/>
<polygon fill="black" stroke="black" points="701.11,-1237.02 705.31,-1227.3 695.96,-1232.28 701.11,-1237.02"/>
</g>
<!-- 14 -->
<g id="node16" class="node">
<title>14</title>
<path fill="none" stroke="blue" d="M916,-1112C916,-1112 556,-1112 556,-1112 550,-1112 544,-1106 544,-1100 544,-1100 544,-1056 544,-1056 544,-1050 550,-1044 556,-1044 556,-1044 916,-1044 916,-1044 922,-1044 928,-1050 928,-1056 928,-1056 928,-1100 928,-1100 928,-1106 922,-1112 916,-1112"/>
<text text-anchor="middle" x="736" y="-1096.8" font-family="Times,serif" font-size="14.00">Name: Net__Net_Conv2d_conv3__188_download_0</text>
<text text-anchor="middle" x="736" y="-1081.8" font-family="Times,serif" font-size="14.00">Type: download</text>
<text text-anchor="middle" x="736" y="-1066.8" font-family="Times,serif" font-size="14.00">Tensor: Net__Net_Conv2d_conv3__188_fix</text>
<text text-anchor="middle" x="736" y="-1051.8" font-family="Times,serif" font-size="14.00">Shape: {1, 16, 16, 32}</text>
</g>
<!-- 15&#45;&gt;14 -->
<g id="edge13" class="edge">
<title>15&#45;&gt;14</title>
<path fill="none" stroke="black" d="M736,-1158.71C736,-1147.33 736,-1134.43 736,-1122.37"/>
<polygon fill="black" stroke="black" points="739.5,-1122.05 736,-1112.05 732.5,-1122.05 739.5,-1122.05"/>
</g>
<!-- 16 -->
<g id="node21" class="node">
<title>16</title>
<path fill="none" stroke="red" d="M946,-989C946,-989 526,-989 526,-989 520,-989 514,-983 514,-977 514,-977 514,-903 514,-903 514,-897 520,-891 526,-891 526,-891 946,-891 946,-891 952,-891 958,-897 958,-903 958,-903 958,-977 958,-977 958,-983 952,-989 946,-989"/>
<text text-anchor="middle" x="736" y="-973.8" font-family="Times,serif" font-size="14.00">Name: Net__Net_Conv2d_conv3__188_fix_Net__Net_Tanh_</text>
<text text-anchor="middle" x="736" y="-958.8" font-family="Times,serif" font-size="14.00">tanh__input</text>
<text text-anchor="middle" x="736" y="-943.8" font-family="Times,serif" font-size="14.00">Type: fix2float</text>
<text text-anchor="middle" x="736" y="-928.8" font-family="Times,serif" font-size="14.00">Tensor: Net__Net_Conv2d_conv3__188_fix_Net__Net_Ta</text>
<text text-anchor="middle" x="736" y="-913.8" font-family="Times,serif" font-size="14.00">nh_tanh__input</text>
<text text-anchor="middle" x="736" y="-898.8" font-family="Times,serif" font-size="14.00">Shape: {1, 16, 16, 32}</text>
</g>
<!-- 14&#45;&gt;16 -->
<g id="edge21" class="edge">
<title>14&#45;&gt;16</title>
<path fill="none" stroke="black" d="M736,-1043.73C736,-1030.38 736,-1014.58 736,-999.43"/>
<polygon fill="black" stroke="black" points="739.5,-999.08 736,-989.08 732.5,-999.08 739.5,-999.08"/>
</g>
<!-- 12 -->
<g id="node17" class="node">
<title>12</title>
<path fill="none" stroke="blue" d="M492,-1331C492,-1331 124,-1331 124,-1331 118,-1331 112,-1325 112,-1319 112,-1319 112,-1275 112,-1275 112,-1269 118,-1263 124,-1263 124,-1263 492,-1263 492,-1263 498,-1263 504,-1269 504,-1275 504,-1275 504,-1319 504,-1319 504,-1325 498,-1331 492,-1331"/>
<text text-anchor="middle" x="308" y="-1315.8" font-family="Times,serif" font-size="14.00">Name: Net__Net_Tanh_tanh__input_3_fix_upload_0</text>
<text text-anchor="middle" x="308" y="-1300.8" font-family="Times,serif" font-size="14.00">Type: upload</text>
<text text-anchor="middle" x="308" y="-1285.8" font-family="Times,serif" font-size="14.00">Tensor: Net__Net_Tanh_tanh__input_3_fix_upload_0</text>
<text text-anchor="middle" x="308" y="-1270.8" font-family="Times,serif" font-size="14.00">Shape: {1, 16, 16, 64}</text>
</g>
<!-- 12&#45;&gt;15 -->
<g id="edge12" class="edge">
<title>12&#45;&gt;15</title>
<path fill="none" stroke="black" d="M446.66,-1262.95C491.59,-1252.25 541.59,-1240.33 587.22,-1229.46"/>
<polygon fill="black" stroke="black" points="588.27,-1232.8 597.19,-1227.08 586.65,-1225.99 588.27,-1232.8"/>
</g>
<!-- 11 -->
<g id="node19" class="node">
<title>11</title>
<path fill="none" stroke="red" d="M443.5,-1581C443.5,-1581 172.5,-1581 172.5,-1581 166.5,-1581 160.5,-1575 160.5,-1569 160.5,-1569 160.5,-1525 160.5,-1525 160.5,-1519 166.5,-1513 172.5,-1513 172.5,-1513 443.5,-1513 443.5,-1513 449.5,-1513 455.5,-1519 455.5,-1525 455.5,-1525 455.5,-1569 455.5,-1569 455.5,-1575 449.5,-1581 443.5,-1581"/>
<text text-anchor="middle" x="308" y="-1565.8" font-family="Times,serif" font-size="14.00">Name: Net__Net_Tanh_tanh__input_3</text>
<text text-anchor="middle" x="308" y="-1550.8" font-family="Times,serif" font-size="14.00">Type: tanh</text>
<text text-anchor="middle" x="308" y="-1535.8" font-family="Times,serif" font-size="14.00">Tensor: Net__Net_Tanh_tanh__input_3</text>
<text text-anchor="middle" x="308" y="-1520.8" font-family="Times,serif" font-size="14.00">Shape: {1, 16, 16, 64}</text>
</g>
<!-- 10&#45;&gt;11 -->
<g id="edge14" class="edge">
<title>10&#45;&gt;11</title>
<path fill="none" stroke="black" d="M308,-1616.74C308,-1608.33 308,-1599.63 308,-1591.36"/>
<polygon fill="black" stroke="black" points="311.5,-1591.17 308,-1581.17 304.5,-1591.17 311.5,-1591.17"/>
</g>
<!-- 13 -->
<g id="node20" class="node">
<title>13</title>
<path fill="none" stroke="red" d="M456,-1477C456,-1477 160,-1477 160,-1477 154,-1477 148,-1471 148,-1465 148,-1465 148,-1421 148,-1421 148,-1415 154,-1409 160,-1409 160,-1409 456,-1409 456,-1409 462,-1409 468,-1415 468,-1421 468,-1421 468,-1465 468,-1465 468,-1471 462,-1477 456,-1477"/>
<text text-anchor="middle" x="308" y="-1461.8" font-family="Times,serif" font-size="14.00">Name: Net__Net_Tanh_tanh__input_3_fix</text>
<text text-anchor="middle" x="308" y="-1446.8" font-family="Times,serif" font-size="14.00">Type: float2fix</text>
<text text-anchor="middle" x="308" y="-1431.8" font-family="Times,serif" font-size="14.00">Tensor: Net__Net_Tanh_tanh__input_3_fix</text>
<text text-anchor="middle" x="308" y="-1416.8" font-family="Times,serif" font-size="14.00">Shape: {1, 16, 16, 64}</text>
</g>
<!-- 11&#45;&gt;13 -->
<g id="edge15" class="edge">
<title>11&#45;&gt;13</title>
<path fill="none" stroke="black" d="M308,-1512.88C308,-1504.78 308,-1495.98 308,-1487.47"/>
<polygon fill="black" stroke="black" points="311.5,-1487.3 308,-1477.3 304.5,-1487.3 311.5,-1487.3"/>
</g>
<!-- 13&#45;&gt;12 -->
<g id="edge20" class="edge">
<title>13&#45;&gt;12</title>
<path fill="none" stroke="black" d="M308,-1408.96C308,-1388.98 308,-1363.27 308,-1341.63"/>
<polygon fill="black" stroke="black" points="311.5,-1341.38 308,-1331.38 304.5,-1341.38 311.5,-1341.38"/>
</g>
<!-- 17 -->
<g id="node22" class="node">
<title>17</title>
<path fill="none" stroke="red" d="M863,-855C863,-855 609,-855 609,-855 603,-855 597,-849 597,-843 597,-843 597,-799 597,-799 597,-793 603,-787 609,-787 609,-787 863,-787 863,-787 869,-787 875,-793 875,-799 875,-799 875,-843 875,-843 875,-849 869,-855 863,-855"/>
<text text-anchor="middle" x="736" y="-839.8" font-family="Times,serif" font-size="14.00">Name: Net__Net_Tanh_tanh__input</text>
<text text-anchor="middle" x="736" y="-824.8" font-family="Times,serif" font-size="14.00">Type: tanh</text>
<text text-anchor="middle" x="736" y="-809.8" font-family="Times,serif" font-size="14.00">Tensor: Net__Net_Tanh_tanh__input</text>
<text text-anchor="middle" x="736" y="-794.8" font-family="Times,serif" font-size="14.00">Shape: {1, 16, 16, 32}</text>
</g>
<!-- 16&#45;&gt;17 -->
<g id="edge16" class="edge">
<title>16&#45;&gt;17</title>
<path fill="none" stroke="black" d="M736,-890.74C736,-882.33 736,-873.63 736,-865.36"/>
<polygon fill="black" stroke="black" points="739.5,-865.17 736,-855.17 732.5,-865.17 739.5,-865.17"/>
</g>
<!-- 18 -->
<g id="node23" class="node">
<title>18</title>
<path fill="none" stroke="red" d="M876,-751C876,-751 596,-751 596,-751 590,-751 584,-745 584,-739 584,-739 584,-695 584,-695 584,-689 590,-683 596,-683 596,-683 876,-683 876,-683 882,-683 888,-689 888,-695 888,-695 888,-739 888,-739 888,-745 882,-751 876,-751"/>
<text text-anchor="middle" x="736" y="-735.8" font-family="Times,serif" font-size="14.00">Name: Net__Net_Tanh_tanh__input_fix</text>
<text text-anchor="middle" x="736" y="-720.8" font-family="Times,serif" font-size="14.00">Type: float2fix</text>
<text text-anchor="middle" x="736" y="-705.8" font-family="Times,serif" font-size="14.00">Tensor: Net__Net_Tanh_tanh__input_fix</text>
<text text-anchor="middle" x="736" y="-690.8" font-family="Times,serif" font-size="14.00">Shape: {1, 16, 16, 32}</text>
</g>
<!-- 17&#45;&gt;18 -->
<g id="edge17" class="edge">
<title>17&#45;&gt;18</title>
<path fill="none" stroke="black" d="M736,-786.88C736,-778.78 736,-769.98 736,-761.47"/>
<polygon fill="black" stroke="black" points="739.5,-761.3 736,-751.3 732.5,-761.3 739.5,-761.3"/>
</g>
<!-- 18&#45;&gt;19 -->
<g id="edge22" class="edge">
<title>18&#45;&gt;19</title>
<path fill="none" stroke="black" d="M736,-682.96C736,-662.98 736,-637.27 736,-615.63"/>
<polygon fill="black" stroke="black" points="739.5,-615.38 736,-605.38 732.5,-615.38 739.5,-615.38"/>
</g>
</g>
</svg>
